<?xml version="1.0" standalone="no"?><!DOCTYPE svg PUBLIC "-//W3C//DTD SVG 1.1//EN" "http://www.w3.org/Graphics/SVG/1.1/DTD/svg11.dtd"><svg t="1542894397709" class="icon" style="" viewBox="0 0 1025 1024" version="1.1" xmlns="http://www.w3.org/2000/svg" p-id="2727" xmlns:xlink="http://www.w3.org/1999/xlink" width="200.1953125" height="200"><defs><style type="text/css"></style></defs><path d="M973.509697 507.453232c-1.203466-2.984104-123.898648-298.359234-453.687169-298.359234S67.337801 504.469128 66.134335 507.453232c-3.74241 9.312533-2.906329 19.828532 2.257522 28.436997 7.210561 11.999864 179.664347 293.812466 451.429647 293.812466 271.758136 0 444.219086-281.812602 451.429647-293.812466C976.416026 527.281764 977.252107 516.765766 973.509697 507.453232zM519.822528 765.703079c-203.655889 0-350.702833-194.937925-387.578418-249.046813 27.273442-55.297003 138.437456-243.562652 387.578418-243.562652 249.195199 0 360.35205 188.359797 387.578418 243.562652C870.525361 570.766177 723.47023 765.703079 519.822528 765.703079z" p-id="2728"></path><path d="M519.822528 308.625534c-114.695614 0-208.000032 93.312605-208.000032 208.000032s93.304418 208.000032 208.000032 208.000032 208.000032-93.312605 208.000032-208.000032S634.517118 308.625534 519.822528 308.625534zM519.822528 660.624958c-79.398043 0-144.000416-64.594186-144.000416-144.000416s64.601349-144.000416 144.000416-144.000416 144.000416 64.594186 144.000416 144.000416S599.220571 660.624958 519.822528 660.624958z" p-id="2729"></path></svg>